# xmcd
#
# Track frame offsets: 
#        150
#        14658
#        31931
#        45122
#        57420
#        76721
#        83924
#        104016
#        118236
#        129722
#        153342
#        170521
#        188198
#        206778
#
# Disc length: 2906 seconds
#
# Revision: 0
# Processed by: cddbd v1.5.2PL0 Copyright (c) Steve Scherf et al.
# Submitted via: ExactAudioCopy v1.0b3
#
DISCID=ba0b580e
DTITLE=Barebones  - 35 Orange
DYEAR=1999
DGENRE=Acoustic Blues
TTITLE0=Barebones - Greenspace I-B
TTITLE1=Barebones - Barebones-B
TTITLE2=Barebones - The Old Folks Ain't Home-B
TTITLE3=Barebones - Eyesight To The Blind-B
TTITLE4=Barebones - Amazing Grace-B
TTITLE5=Barebones - Chromespace-B
TTITLE6=Barebones - Alexander's Ragtime Band-B
TTITLE7=Barebones - Summer-B
TTITLE8=Barebones - Greenspace II-B
TTITLE9=Barebones - St. James Infirmary-B
TTITLE10=Barebones - C.C.Rider-B
TTITLE11=Barebones - Easy Baby-B
TTITLE12=Barebones - Infinite Boogie-B
TTITLE13=Barebones - Chromespace II (The Bayou)-B
EXTD=
EXTT0=
EXTT1=
EXTT2=
EXTT3=
EXTT4=
EXTT5=
EXTT6=
EXTT7=
EXTT8=
EXTT9=
EXTT10=
EXTT11=
EXTT12=
EXTT13=
PLAYORDER=
